<?xml version="1.0" encoding="UTF-8" standalone="no"?>
<svg
   xmlns:dc="http://purl.org/dc/elements/1.1/"
   xmlns:cc="http://creativecommons.org/ns#"
   xmlns:rdf="http://www.w3.org/1999/02/22-rdf-syntax-ns#"
   xmlns:svg="http://www.w3.org/2000/svg"
   xmlns="http://www.w3.org/2000/svg"
   xmlns:sodipodi="http://sodipodi.sourceforge.net/DTD/sodipodi-0.dtd"
   xmlns:inkscape="http://www.inkscape.org/namespaces/inkscape"
   width="24"
   height="24"
   viewBox="0 0 24 24"
   fill="none"
   version="1.1"
   id="svg7"
   sodipodi:docname="gaze-2.svg"
   inkscape:version="0.92.5 (2060ec1f9f, 2020-04-08)">
  <metadata
     id="metadata13">
    <rdf:RDF>
      <cc:Work
         rdf:about="">
        <dc:format>image/svg+xml</dc:format>
        <dc:type
           rdf:resource="http://purl.org/dc/dcmitype/StillImage" />
      </cc:Work>
    </rdf:RDF>
  </metadata>
  <defs
     id="defs11" />
  <sodipodi:namedview
     pagecolor="#ffffff"
     bordercolor="#666666"
     borderopacity="1"
     objecttolerance="10"
     gridtolerance="10"
     guidetolerance="10"
     inkscape:pageopacity="0"
     inkscape:pageshadow="2"
     inkscape:window-width="1597"
     inkscape:window-height="960"
     id="namedview9"
     showgrid="false"
     inkscape:zoom="19.666667"
     inkscape:cx="20.352384"
     inkscape:cy="11.583576"
     inkscape:window-x="1522"
     inkscape:window-y="323"
     inkscape:window-maximized="0"
     inkscape:current-layer="Iconly/Light/Logout" />
  <g
     id="Iconly/Light/Logout">
    <g
       id="g833"
       transform="translate(0.05084746,-1.7288136)">
      <ellipse
         ry="4.3355412"
         rx="9.7049446"
         cy="13.796658"
         cx="12.153707"
         id="path1034-2-9-6-4-6-52-0-6"
         style="clip-rule:evenodd;opacity:1;fill:#ffffff;fill-opacity:1;fill-rule:evenodd;stroke:none;stroke-width:1.71616852;stroke-miterlimit:4;stroke-dasharray:none;stroke-opacity:1;image-rendering:optimizeQuality;shape-rendering:geometricPrecision;text-rendering:geometricPrecision" />
      <circle
         r="3.6370058"
         cy="13.941054"
         cx="10.748794"
         id="path956-1-0-6-6-2-1-7-32-54-7-8"
         style="clip-rule:evenodd;opacity:1;fill:#9933cc;fill-opacity:1;fill-rule:evenodd;stroke:#9933cc;stroke-width:2.17733812;stroke-miterlimit:4;stroke-dasharray:none;stroke-opacity:1;image-rendering:optimizeQuality;shape-rendering:geometricPrecision;text-rendering:geometricPrecision" />
      <path
         sodipodi:nodetypes="ssccccscccccccscccccccsccc"
         inkscape:connector-curvature="0"
         id="path869-3-2-7-3-1-0-29-8-0-7-8-8"
         d="M 11.769524,19.254589 C 9.1611301,19.391511 6.7217292,18.832868 4.4071096,17.568568 3.3031718,16.965545 2.1464301,16.111233 1.3970111,15.345419 L 1.2381065,15.183059 1.3522192,14.985308 C 1.6702083,14.434204 2.2351253,13.667901 2.7482025,13.091608 4.6896619,10.910924 7.1295433,9.4313368 9.8532834,8.782931 10.913779,8.5304825 12.155319,8.3964792 13.244821,8.4169016 c 3.070196,0.057534 6.090581,1.2013109 8.549649,3.2376844 0.351875,0.291355 0.507778,0.433392 0.757152,0.689882 l 0.159215,0.163699 -0.114214,0.196392 c -0.312038,0.536613 -0.868152,1.295487 -1.347285,1.838587 -2.008042,2.275997 -4.486456,3.761467 -7.369653,4.417089 -0.393335,0.08943 -1.712762,0.273493 -2.110161,0.294354 z m 1.440642,-0.846924 c 3.033209,-0.552777 5.700127,-2.139585 7.806789,-4.644977 0.260573,-0.309908 0.75554,-0.974223 0.815918,-1.095101 0.0347,-0.06947 0.03054,-0.07412 -0.363594,-0.408211 -0.762814,-0.646622 -1.750681,-1.288795 -2.739636,-1.78094 C 15.802343,9.0216597 12.601508,8.6990225 9.5509271,9.5532143 7.0672015,10.248677 4.8126295,11.726921 3.0008317,13.847898 c -0.3784358,0.443024 -0.9138513,1.168679 -0.9064006,1.228486 0.00459,0.03685 0.3457756,0.330262 0.7464056,0.641936 2.1011229,1.634599 4.6327267,2.641877 7.1493896,2.844623 1.0797797,0.087 2.1823727,0.03381 3.2199397,-0.155278 z"
         style="clip-rule:evenodd;fill:#0c0410;fill-opacity:1;fill-rule:evenodd;stroke:#000000;stroke-width:0.63526821;stroke-miterlimit:4;stroke-dasharray:none;stroke-opacity:1;image-rendering:optimizeQuality;shape-rendering:geometricPrecision;text-rendering:geometricPrecision" />
      <path
         class="fil2"
         d="m 10.755424,16.451287 2.442974,-4.230993 h -3.120475 l 0.391527,0.677499 H 9.5871704 L 8.7517951,11.454385 h 5.7691279 l -1.232315,2.134437 1.218777,0.703664 -0.3834,0.663065 -1.217877,-0.703664 -0.161488,0.279663 1.201644,0.73163 -0.382505,0.66306 -1.207951,-0.720799 -1.600384,2.772246 C 10.206027,17.026847 9.6701614,16.122006 9.1415174,15.205441 L 7.933561,15.92624 7.5510587,15.26318 8.7517951,14.53155 8.5912138,14.251887 7.3724386,14.955551 6.98993,14.292486 8.2087122,13.588822 C 7.8135782,12.904108 7.3985964,12.162557 6.98993,11.454385 h 0.8804866 z"
         id="path11-3-5-6-2-9-6-7-9-1-0-4-4-4"
         inkscape:connector-curvature="0"
         style="clip-rule:evenodd;fill:#000000;fill-opacity:1;fill-rule:evenodd;stroke:#000000;stroke-width:0.00090213;image-rendering:optimizeQuality;shape-rendering:geometricPrecision;text-rendering:geometricPrecision" />
    </g>
  </g>
</svg>
