<?xml version="1.0" encoding="UTF-8" standalone="no"?>
<svg
   xmlns:dc="http://purl.org/dc/elements/1.1/"
   xmlns:cc="http://creativecommons.org/ns#"
   xmlns:rdf="http://www.w3.org/1999/02/22-rdf-syntax-ns#"
   xmlns:svg="http://www.w3.org/2000/svg"
   xmlns="http://www.w3.org/2000/svg"
   xmlns:sodipodi="http://sodipodi.sourceforge.net/DTD/sodipodi-0.dtd"
   xmlns:inkscape="http://www.inkscape.org/namespaces/inkscape"
   width="24"
   height="24"
   viewBox="0 0 24 24"
   fill="none"
   version="1.1"
   id="svg7"
   sodipodi:docname="gaze.svg"
   inkscape:version="0.92.5 (2060ec1f9f, 2020-04-08)">
  <metadata
     id="metadata13">
    <rdf:RDF>
      <cc:Work
         rdf:about="">
        <dc:format>image/svg+xml</dc:format>
        <dc:type
           rdf:resource="http://purl.org/dc/dcmitype/StillImage" />
      </cc:Work>
    </rdf:RDF>
  </metadata>
  <defs
     id="defs11" />
  <sodipodi:namedview
     pagecolor="#ffffff"
     bordercolor="#666666"
     borderopacity="1"
     objecttolerance="10"
     gridtolerance="10"
     guidetolerance="10"
     inkscape:pageopacity="0"
     inkscape:pageshadow="2"
     inkscape:window-width="1728"
     inkscape:window-height="953"
     id="namedview9"
     showgrid="false"
     inkscape:zoom="9.8333335"
     inkscape:cx="34.685578"
     inkscape:cy="15.997065"
     inkscape:window-x="1522"
     inkscape:window-y="323"
     inkscape:window-maximized="0"
     inkscape:current-layer="Iconly/Light/Logout" />
  <g
     id="Iconly/Light/Logout">
    <path
       sodipodi:nodetypes="ccccccc"
       inkscape:connector-curvature="0"
       id="path1038-0-8-28-3-1-7"
       d="m 5.4520239,18.607224 6.5733941,-11.3845054 4.592018,7.9740484 4.199249,5.470414 -4.327503,0.004 -11.2931781,-1.370295 z"
       style="clip-rule:evenodd;fill:#9933cc;fill-opacity:0;fill-rule:evenodd;stroke:none;stroke-width:0.06422491px;stroke-linecap:butt;stroke-linejoin:miter;stroke-opacity:1;image-rendering:optimizeQuality;shape-rendering:geometricPrecision;text-rendering:geometricPrecision" />
    <path
       style="clip-rule:evenodd;fill:#9933cc;fill-opacity:1;fill-rule:evenodd;stroke:#000000;stroke-width:0.0024274;image-rendering:optimizeQuality;shape-rendering:geometricPrecision;text-rendering:geometricPrecision"
       inkscape:connector-curvature="0"
       id="path11-3-5-6-2-9-6-7-9-1-0-4"
       d="M 12.025431,7.2227186 5.4520239,18.607224 h 8.3963811 l -1.053497,-1.822978 h 2.373994 l 2.247772,3.88384 H 1.8934604 L 5.2092842,14.924858 1.9298714,13.031488 2.9615122,11.247347 6.2384956,13.140721 6.6730142,12.388224 3.439717,10.419604 4.4689282,8.6354732 7.7192221,10.574959 12.025431,3.1155633 c 1.478284,2.5584713 2.920157,4.99316 4.342605,7.4593957 l 3.250299,-1.9394858 1.029212,1.7841308 -3.230873,1.96862 0.432077,0.752497 3.279415,-1.893374 1.029226,1.784141 -3.279418,1.89337 c 1.063195,1.842396 2.179804,3.837717 3.279418,5.743228 H 19.78824 Z"
       class="fil2" />
    <g
       style="clip-rule:evenodd;fill-rule:evenodd;image-rendering:optimizeQuality;shape-rendering:geometricPrecision;text-rendering:geometricPrecision"
       id="g1375"
       transform="matrix(0.00239478,0,0,0.00239478,-175.98858,-41.614252)">
      <ellipse
         ry="644.74896"
         rx="1443.246"
         cy="23492.746"
         cx="78480.977"
         id="path1034-2-9-6-4-6-52"
         style="clip-rule:evenodd;opacity:1;fill:#ffffff;fill-opacity:1;fill-rule:evenodd;stroke:none;stroke-width:255.21562195;stroke-miterlimit:4;stroke-dasharray:none;stroke-opacity:1;image-rendering:optimizeQuality;shape-rendering:geometricPrecision;text-rendering:geometricPrecision" />
      <circle
         r="631.20081"
         cy="23514.221"
         cx="78272.047"
         id="path956-1-0-6-6-2-1-7-32-54"
         style="clip-rule:evenodd;opacity:1;fill:#000000;fill-opacity:1;fill-rule:evenodd;stroke:#9933cc;stroke-width:377.87615967;stroke-miterlimit:4;stroke-dasharray:none;stroke-opacity:1;image-rendering:optimizeQuality;shape-rendering:geometricPrecision;text-rendering:geometricPrecision" />
      <path
         sodipodi:nodetypes="ssccccscccccccscccccccsccc"
         inkscape:connector-curvature="0"
         id="path869-3-2-7-3-1-0-29-8-0-7"
         d="m 78423.844,24304.409 c -387.901,20.362 -750.67,-62.715 -1094.883,-250.732 -164.169,-89.677 -336.191,-216.724 -447.639,-330.61 l -23.631,-24.145 16.97,-29.408 c 47.289,-81.956 131.299,-195.915 207.6,-281.617 288.719,-324.295 651.56,-544.328 1056.614,-640.754 157.709,-37.542 342.341,-57.47 504.364,-54.433 456.576,8.556 905.745,178.65 1271.439,481.484 52.328,43.328 75.513,64.451 112.598,102.594 l 23.677,24.344 -16.985,29.206 c -46.404,79.801 -129.105,192.655 -200.358,273.421 -298.621,338.469 -667.192,559.377 -1095.959,656.876 -58.494,13.3 -254.709,40.672 -313.807,43.774 z m 214.241,-125.948 c 451.076,-82.205 847.68,-318.183 1160.967,-690.766 38.75,-46.087 112.358,-144.879 121.337,-162.855 5.161,-10.331 4.541,-11.022 -54.071,-60.706 -113.44,-96.161 -260.348,-191.66 -407.418,-264.848 -435.326,-216.641 -911.33,-264.621 -1364.989,-137.592 -369.361,103.424 -704.644,323.257 -974.081,638.673 -56.278,65.883 -135.901,173.797 -134.793,182.691 0.683,5.48 51.421,49.114 111,95.464 312.463,243.085 688.944,392.88 1063.203,423.031 160.577,12.938 324.546,5.028 478.845,-23.092 z"
         style="clip-rule:evenodd;fill:#0c0410;fill-opacity:1;fill-rule:evenodd;stroke:#000000;stroke-width:94.47228241;stroke-miterlimit:4;stroke-dasharray:none;stroke-opacity:1;image-rendering:optimizeQuality;shape-rendering:geometricPrecision;text-rendering:geometricPrecision" />
    </g>
  </g>
</svg>
