<?xml version="1.0" encoding="UTF-8" standalone="no"?>
<svg
   xmlns:dc="http://purl.org/dc/elements/1.1/"
   xmlns:cc="http://creativecommons.org/ns#"
   xmlns:rdf="http://www.w3.org/1999/02/22-rdf-syntax-ns#"
   xmlns:svg="http://www.w3.org/2000/svg"
   xmlns="http://www.w3.org/2000/svg"
   xmlns:sodipodi="http://sodipodi.sourceforge.net/DTD/sodipodi-0.dtd"
   xmlns:inkscape="http://www.inkscape.org/namespaces/inkscape"
   width="24"
   height="24"
   viewBox="0 0 24 24"
   fill="none"
   version="1.1"
   id="svg7"
   sodipodi:docname="gaze-4.svg"
   inkscape:version="0.92.5 (2060ec1f9f, 2020-04-08)">
  <metadata
     id="metadata13">
    <rdf:RDF>
      <cc:Work
         rdf:about="">
        <dc:format>image/svg+xml</dc:format>
        <dc:type
           rdf:resource="http://purl.org/dc/dcmitype/StillImage" />
      </cc:Work>
    </rdf:RDF>
  </metadata>
  <defs
     id="defs11" />
  <sodipodi:namedview
     pagecolor="#ffffff"
     bordercolor="#666666"
     borderopacity="1"
     objecttolerance="10"
     gridtolerance="10"
     guidetolerance="10"
     inkscape:pageopacity="0"
     inkscape:pageshadow="2"
     inkscape:window-width="1601"
     inkscape:window-height="867"
     id="namedview9"
     showgrid="false"
     inkscape:zoom="19.666667"
     inkscape:cx="8.4881527"
     inkscape:cy="7.4566937"
     inkscape:window-x="1434"
     inkscape:window-y="476"
     inkscape:window-maximized="0"
     inkscape:current-layer="Iconly/Light/Logout" />
  <g
     id="Iconly/Light/Logout">
    <ellipse
       style="clip-rule:evenodd;opacity:1;fill:#ffffff;fill-opacity:1;fill-rule:evenodd;stroke:none;stroke-width:1.74621952;stroke-miterlimit:4;stroke-dasharray:none;stroke-opacity:1;image-rendering:optimizeQuality;shape-rendering:geometricPrecision;text-rendering:geometricPrecision"
       id="path1034-2-9-6-4-6-52-0-6-2"
       cx="12.270146"
       cy="12.078164"
       rx="9.8748837"
       ry="4.411459" />
    <circle
       style="clip-rule:evenodd;opacity:1;fill:#9933cc;fill-opacity:1;fill-rule:evenodd;stroke:#9933cc;stroke-width:2.21546483;stroke-miterlimit:4;stroke-dasharray:none;stroke-opacity:1;image-rendering:optimizeQuality;shape-rendering:geometricPrecision;text-rendering:geometricPrecision"
       id="path956-1-0-6-6-2-1-7-32-54-7-8-0"
       cx="10.840635"
       cy="12.22509"
       r="3.7006919" />
    <path
       style="clip-rule:evenodd;fill:#0c0410;fill-opacity:1;fill-rule:evenodd;stroke:#000000;stroke-width:0.64639211;stroke-miterlimit:4;stroke-dasharray:none;stroke-opacity:1;image-rendering:optimizeQuality;shape-rendering:geometricPrecision;text-rendering:geometricPrecision"
       d="M 11.879236,17.631667 C 9.225169,17.770986 6.7430536,17.202559 4.3879036,15.916121 3.2646355,15.302539 2.0876381,14.433267 1.3250972,13.654044 L 1.16341,13.488841 1.2795197,13.287628 C 1.6030777,12.726874 2.1778865,11.947151 2.699948,11.360767 4.6754025,9.141898 7.1580082,7.6364028 9.9294423,6.9766437 11.008507,6.7197748 12.271787,6.5834245 13.380367,6.6042042 c 3.123958,0.058541 6.197233,1.222347 8.69936,3.2943777 0.358035,0.2964561 0.516668,0.4409821 0.77041,0.7019621 l 0.162003,0.166566 -0.116216,0.199831 c -0.3175,0.54601 -0.883351,1.318171 -1.370875,1.870781 -2.043205,2.315851 -4.56502,3.827332 -7.498701,4.494435 -0.400223,0.091 -1.742754,0.278282 -2.147112,0.29951 z m 1.465869,-0.861754 c 3.086321,-0.562458 5.799942,-2.177052 7.943492,-4.726316 0.265136,-0.315333 0.76877,-0.991281 0.830204,-1.114275 0.03532,-0.07068 0.03107,-0.07541 -0.369959,-0.415359 C 20.97267,9.856017 19.967505,9.2025997 18.961233,8.7018382 15.982672,7.2195521 12.725789,6.8912662 9.6217916,7.7604152 7.0945754,8.4680554 4.800524,9.9721833 2.9570008,12.130301 c -0.3850618,0.45078 -0.9298527,1.189142 -0.9222721,1.249997 0.00468,0.03749 0.3518309,0.336045 0.759476,0.653176 2.1379144,1.663222 4.713847,2.688138 7.2745773,2.894434 1.098688,0.08853 2.220587,0.0344 3.276323,-0.157995 z"
       id="path869-3-2-7-3-1-0-29-8-0-7-8-8-6"
       inkscape:connector-curvature="0"
       sodipodi:nodetypes="ssccccscccccccscccccccsccc" />
    <path
       style="clip-rule:evenodd;fill:#000000;fill-opacity:1;fill-rule:evenodd;stroke:#000000;stroke-width:0.00067062;image-rendering:optimizeQuality;shape-rendering:geometricPrecision;text-rendering:geometricPrecision"
       inkscape:connector-curvature="0"
       id="path11-3-5-6-2-9-6-7-9-1-0-4-4-4-8"
       d="m 9.2849281,10.416488 h 4.2886169 l -0.91607,1.586687 0.906008,0.523085 -0.285009,0.492905 -0.90534,-0.523086 -0.120048,0.207893 0.89327,0.543875 -0.284342,0.492902 -0.897961,-0.535822 -1.189683,2.060814 C 10.365964,14.558913 9.9676148,13.886277 9.5746344,13.204927 L 8.6766722,13.740749 8.3923287,13.247847 9.2849256,12.703972 9.1655557,12.496079 8.2595501,13.019165 7.9752041,12.52626 8.8812134,12.003175 C 8.5874817,11.494176 8.2789952,10.942927 7.9752041,10.416488 h 0.6545296 c 1.3497992,0 -0.5340174,0 0.6551944,0 z"
       class="fil2"
       sodipodi:nodetypes="cccccccccccccccccccccc" />
  </g>
</svg>
