<?xml version="1.0" encoding="UTF-8" standalone="no"?>
<svg
   xmlns:dc="http://purl.org/dc/elements/1.1/"
   xmlns:cc="http://creativecommons.org/ns#"
   xmlns:rdf="http://www.w3.org/1999/02/22-rdf-syntax-ns#"
   xmlns:svg="http://www.w3.org/2000/svg"
   xmlns="http://www.w3.org/2000/svg"
   xmlns:sodipodi="http://sodipodi.sourceforge.net/DTD/sodipodi-0.dtd"
   xmlns:inkscape="http://www.inkscape.org/namespaces/inkscape"
   width="24"
   height="24"
   viewBox="0 0 24 24"
   fill="none"
   version="1.1"
   id="svg7"
   sodipodi:docname="gaze-6.svg"
   inkscape:version="0.92.5 (2060ec1f9f, 2020-04-08)">
  <metadata
     id="metadata13">
    <rdf:RDF>
      <cc:Work
         rdf:about="">
        <dc:format>image/svg+xml</dc:format>
        <dc:type
           rdf:resource="http://purl.org/dc/dcmitype/StillImage" />
      </cc:Work>
    </rdf:RDF>
  </metadata>
  <defs
     id="defs11" />
  <sodipodi:namedview
     pagecolor="#ffffff"
     bordercolor="#666666"
     borderopacity="1"
     objecttolerance="10"
     gridtolerance="10"
     guidetolerance="10"
     inkscape:pageopacity="0"
     inkscape:pageshadow="2"
     inkscape:window-width="1605"
     inkscape:window-height="833"
     id="namedview9"
     showgrid="false"
     inkscape:zoom="19.666668"
     inkscape:cx="6.7405755"
     inkscape:cy="8.7934753"
     inkscape:window-x="1316"
     inkscape:window-y="603"
     inkscape:window-maximized="0"
     inkscape:current-layer="Iconly/Light/Logout" />
  <g
     id="Iconly/Light/Logout">
    <ellipse
       style="clip-rule:evenodd;opacity:1;fill:#ffffff;fill-opacity:1;fill-rule:evenodd;stroke:none;stroke-width:1.65311182;stroke-miterlimit:4;stroke-dasharray:none;stroke-opacity:1;image-rendering:optimizeQuality;shape-rendering:geometricPrecision;text-rendering:geometricPrecision"
       id="path1034-2-9-6-4-6-52-0-6-2-3-2"
       cx="12.274055"
       cy="10.907013"
       rx="9.3483591"
       ry="4.1762419" />
    <circle
       style="clip-rule:evenodd;opacity:1;fill:#9933cc;fill-opacity:1;fill-rule:evenodd;stroke:#9933cc;stroke-width:2.09733701;stroke-miterlimit:4;stroke-dasharray:none;stroke-opacity:1;image-rendering:optimizeQuality;shape-rendering:geometricPrecision;text-rendering:geometricPrecision"
       id="path956-1-0-6-6-2-1-7-32-54-7-8-0-6-6"
       cx="12.101182"
       cy="10.951192"
       r="3.5033724" />
    <path
       style="clip-rule:evenodd;fill:#0c0410;fill-opacity:1;fill-rule:evenodd;stroke:#000000;stroke-width:0.61192667;stroke-miterlimit:4;stroke-dasharray:none;stroke-opacity:1;image-rendering:optimizeQuality;shape-rendering:geometricPrecision;text-rendering:geometricPrecision"
       d="M 11.241489,16.096727 C 8.7323365,15.907173 6.4704378,15.07391 4.4144409,13.581767 3.4337849,12.870047 2.4336072,11.911808 1.8114861,11.088097 L 1.6795475,10.913458 1.8127824,10.73852 C 2.1845809,10.251078 2.8181151,9.5882954 3.3793368,9.1007758 5.5017508,7.2557326 8.0146446,6.141783 10.696636,5.8568082 c 1.044164,-0.1109454 2.246635,-0.086533 3.284989,0.066772 2.926398,0.4320378 5.671453,1.895686 7.770688,4.1432258 0.300647,0.321577 0.431912,0.476397 0.638896,0.752098 l 0.131775,0.175919 -0.13307,0.173658 c -0.364001,0.47434 -0.988454,1.131072 -1.512939,1.591101 -2.19799,1.927898 -4.748184,3.042751 -7.583637,3.315034 -0.38644,0.03716 -1.669933,0.05093 -2.051849,0.02211 z m 1.480215,-0.632232 c 2.965841,-0.155632 5.708758,-1.34416 8.028965,-3.479107 0.287188,-0.264055 0.841461,-0.838 0.914158,-0.946042 0.04153,-0.06212 0.03821,-0.06706 -0.297304,-0.434636 C 20.718026,9.8932072 19.853248,9.158394 18.968639,8.5667351 16.351085,6.8154777 13.332345,6.1141084 10.313156,6.5555931 7.8546508,6.9149988 5.5189914,8.050428 3.5277872,9.8543342 3.1117412,10.231112 2.5112561,10.858679 2.5110029,10.916723 c -2.947e-4,0.03575 0.2898241,0.357993 0.6341316,0.704949 1.8067987,1.819737 4.1016376,3.092975 6.4810413,3.595716 1.0209652,0.215722 2.0811342,0.300337 3.0955282,0.247107 z"
       id="path869-3-2-7-3-1-0-29-8-0-7-8-8-6-7-1"
       inkscape:connector-curvature="0"
       sodipodi:nodetypes="ssccccscccccccscccccccsccc" />
    <path
       style="clip-rule:evenodd;fill:#000000;fill-opacity:1;fill-rule:evenodd;stroke:#000000;stroke-width:0.00185493;image-rendering:optimizeQuality;shape-rendering:geometricPrecision;text-rendering:geometricPrecision"
       inkscape:connector-curvature="0"
       id="path11-3-5-6-2-9-6-7-9-1-0-4-4-4-3-8"
       d="m 18.811892,14.111248 1.227905,2.61928 -1.408936,0.701544 -1.250939,-2.607842 c 1.008605,-0.501775 0.117751,-0.0591 1.43197,-0.712982 z"
       class="fil2"
       sodipodi:nodetypes="ccccc" />
    <path
       style="clip-rule:evenodd;fill:#000000;fill-opacity:1;fill-rule:evenodd;stroke:#000000;stroke-width:0.00185493;image-rendering:optimizeQuality;shape-rendering:geometricPrecision;text-rendering:geometricPrecision"
       inkscape:connector-curvature="0"
       id="path11-3-5-6-2-9-6-7-9-1-0-4-4-4-3-6-7"
       d="m 16.824132,15.0912 1.227904,2.619283 -1.408972,0.701573 -1.250931,-2.607875 c 1.008607,-0.501777 0.117738,-0.0591 1.431999,-0.712981 z"
       class="fil2"
       sodipodi:nodetypes="ccccc" />
    <path
       style="clip-rule:evenodd;fill:#000000;fill-opacity:1;fill-rule:evenodd;stroke:#000000;stroke-width:0.00185493;image-rendering:optimizeQuality;shape-rendering:geometricPrecision;text-rendering:geometricPrecision"
       inkscape:connector-curvature="0"
       id="path11-3-5-6-2-9-6-7-9-1-0-4-4-4-3-7-9"
       d="M 9.6650544,15.962839 8.5222204,18.620151 7.062055,18.032607 8.1812479,15.365562 c 1.0447812,0.42088 0.1223644,0.0488 1.4838065,0.597277 z"
       class="fil2"
       sodipodi:nodetypes="ccccc" />
    <path
       style="clip-rule:evenodd;fill:#000000;fill-opacity:1;fill-rule:evenodd;stroke:#000000;stroke-width:0.00185493;image-rendering:optimizeQuality;shape-rendering:geometricPrecision;text-rendering:geometricPrecision"
       inkscape:connector-curvature="0"
       id="path11-3-5-6-2-9-6-7-9-1-0-4-4-4-3-6-5-2"
       d="M 7.6127071,15.127444 6.4695393,17.784759 5.0093489,17.197177 6.128539,14.53017 c 1.0447813,0.42088 0.1223644,0.04877 1.4841681,0.597274 z"
       class="fil2"
       sodipodi:nodetypes="ccccc" />
    <path
       style="clip-rule:evenodd;fill:#ffffff;fill-opacity:1;fill-rule:evenodd;stroke:#000000;stroke-width:0.00185493;image-rendering:optimizeQuality;shape-rendering:geometricPrecision;text-rendering:geometricPrecision"
       inkscape:connector-curvature="0"
       id="path11-3-5-6-2-9-6-7-9-1-0-4-4-4-3-7-3-0"
       d="M 9.1820819,5.4267701 10.349589,8.0733489 8.9251705,8.7426132 7.7340446,6.1069122 C 8.7537939,5.6282823 7.8532123,6.0505198 9.1820819,5.4267701 Z"
       class="fil2"
       sodipodi:nodetypes="ccccc" />
  </g>
</svg>
