<?xml version="1.0" encoding="UTF-8"?>
<!DOCTYPE svg PUBLIC "-//W3C//DTD SVG 1.1//EN" "http://www.w3.org/Graphics/SVG/1.1/DTD/svg11.dtd">
<!-- Creator: CorelDRAW X6 -->
<svg xmlns="http://www.w3.org/2000/svg" xml:space="preserve" width="210mm" height="297mm" version="1.1" style="shape-rendering:geometricPrecision; text-rendering:geometricPrecision; image-rendering:optimizeQuality; fill-rule:evenodd; clip-rule:evenodd"
viewBox="0 0 21000 29700"
 xmlns:xlink="http://www.w3.org/1999/xlink">
 <defs>
  <style type="text/css">
   <![CDATA[
    .fil0 {fill:#9933CC}
    .fil1 {fill:black;fill-rule:nonzero}
   ]]>
  </style>
 </defs>
 <g id="Слой_x0020_1">
  <metadata id="CorelCorpID_0Corel-Layer"/>
  <g id="_780138224">
   <polygon class="fil0" points="10545,14869 11308,13548 10334,13548 10456,13760 10181,13760 9920,13309 11721,13309 11336,13975 11717,14195 11597,14402 11217,14182 11166,14269 11542,14498 11422,14705 11045,14480 10545,15345 10021,14438 9574,14705 9454,14498 9900,14227 9850,14141 9399,14402 9279,14195 9731,13934 9370,13309 9645,13309 "/>
   <path class="fil1" d="M13730 16391l-187 0 0 -636 -4 0 -217 636 -166 0 -223 -636 -6 0 0 636 -189 0 0 -859 294 0 212 614 209 -614 277 0 0 859zm-5835 -506l0 -138c0,-27 -11,-45 -32,-55 -21,-9 -61,-13 -118,-13l-268 0 0 291 271 0c54,0 92,-7 114,-19 22,-13 33,-35 33,-66zm200 -156l0 163c0,85 -29,142 -85,173 -56,31 -150,47 -279,47l-254 0 0 279 -207 0 0 -859 484 0c122,0 209,13 262,40 52,27 79,79 79,157zm1329 94l0 -61c0,-32 -9,-54 -28,-66 -19,-11 -51,-17 -97,-17l-288 0 0 238 288 0c48,0 81,-6 99,-19 18,-13 26,-38 26,-75zm256 568l-238 0 -225 -338 -206 0 0 338 -207 0 0 -859 497 0c113,0 196,13 248,41 52,27 78,74 78,140l0 151c0,52 -19,92 -56,120 -38,29 -84,46 -140,53l249 354zm922 0l-207 0 0 -859 207 0 0 859zm1425 0l-709 0 0 -126 447 -586 -434 0 0 -147 688 0 0 124 -447 587 455 0 0 148z"/>
  </g>
 </g>
</svg>
