<?xml version="1.0" encoding="UTF-8"?>
<!DOCTYPE svg PUBLIC "-//W3C//DTD SVG 1.1//EN" "http://www.w3.org/Graphics/SVG/1.1/DTD/svg11.dtd">
<!-- Creator: CorelDRAW X6 -->
<svg xmlns="http://www.w3.org/2000/svg" xml:space="preserve" width="210mm" height="297mm" version="1.1" style="shape-rendering:geometricPrecision; text-rendering:geometricPrecision; image-rendering:optimizeQuality; fill-rule:evenodd; clip-rule:evenodd"
viewBox="0 0 21000 29700"
 xmlns:xlink="http://www.w3.org/1999/xlink">
 <defs>
  <style type="text/css">
   <![CDATA[
    .fil0 {fill:black;fill-rule:nonzero}
   ]]>
  </style>
 </defs>
 <g id="Слой_x0020_1">
  <metadata id="CorelCorpID_0Corel-Layer"/>
  <path class="fil0" d="M15681 18243l-194 0 0 -661 -5 0 -226 661 -172 0 -233 -661 -5 0 0 661 -197 0 0 -894 306 0 220 639 218 -639 288 0 0 894zm-6071 -526l0 -143c0,-29 -11,-48 -33,-58 -22,-9 -63,-14 -123,-14l-279 0 0 303 282 0c56,0 96,-7 118,-20 23,-13 35,-36 35,-68zm208 -163l0 170c0,88 -30,148 -88,180 -59,32 -156,49 -291,49l-264 0 0 290 -215 0 0 -894 504 0c127,0 217,14 272,42 55,28 82,83 82,163zm1383 98l0 -63c0,-33 -9,-56 -29,-68 -20,-13 -54,-19 -101,-19l-300 0 0 248 300 0c50,0 85,-7 103,-20 18,-13 27,-39 27,-78zm266 591l-248 0 -234 -351 -214 0 0 351 -215 0 0 -894 517 0c118,0 204,14 258,43 54,28 81,77 81,146l0 157c0,54 -19,96 -58,125 -39,30 -88,48 -146,55l259 368zm959 0l-215 0 0 -894 215 0 0 894zm1484 0l-739 0 0 -131 466 -610 -452 0 0 -153 716 0 0 130 -465 610 474 0 0 154z"/>
  <polygon class="fil0" points="6643,18584 7440,17203 6422,17203 6549,17424 6262,17424 5989,16953 7871,16953 7469,17650 7867,17879 7742,18095 7345,17866 7292,17957 7684,18196 7559,18412 7165,18177 6643,19082 6095,18133 5627,18412 5502,18196 5968,17912 5916,17823 5444,18095 5319,17879 5791,17607 5414,16953 5701,16953 "/>
 </g>
</svg>
